<svg width="173" height="25" viewBox="0 0 173 25" fill="none" xmlns="http://www.w3.org/2000/svg">
<g clip-path="url(#clip0_43_1733)">
<path d="M160.22 3.16415H158.537L151.037 21.3067H153.155L154.711 17.3938L155.398 15.6588L155.99 14.1541C155.99 14.1541 156 14.1289 156.004 14.1181L159.377 5.55076L163.356 15.6588L164.043 17.3938L165.599 21.3067H167.717L160.217 3.16415H160.22Z" fill="#B7B7B7"/>
<path d="M41.9321 4.95321H36.0896V21.3103H34.0488V4.95321H28.2063V3.16415H41.9321V4.95321Z" fill="url(#paint0_linear_43_1733)"/>
<path d="M43.1049 15.7595C43.4096 18.4017 45.1457 20.0612 47.7747 20.0612C49.7375 20.0612 51.2433 19.1037 51.9838 17.8834H53.8723C52.9298 19.982 50.6304 21.6163 47.7995 21.6163C43.6683 21.6163 41.1421 18.6105 41.1421 14.928C41.1421 11.2455 43.8454 8.23975 47.7003 8.23975C51.5551 8.23975 54.1557 11.1411 54.1557 14.7984V15.7559H43.1085L43.1049 15.7595ZM43.0801 14.2045H52.2885C52.083 11.6631 50.4249 9.74443 47.7215 9.74443C45.2201 9.74443 43.3317 11.5083 43.0801 14.2045Z" fill="url(#paint1_linear_43_1733)"/>
<path d="M64.8661 8.55292H67.0345L62.4923 14.8272L67.2648 21.3067H65.0964L61.4471 16.3571L57.7977 21.3067H55.6294L60.4019 14.8272L55.8597 8.55292H58.028L61.4471 13.2973L64.8661 8.55292Z" fill="url(#paint2_linear_43_1733)"/>
<path d="M71.0134 4.51044H73.0046V8.55291H76.8063V10.2376H73.0046V17.365C73.0046 19.1289 73.5644 19.9064 75.1482 19.9064C75.7363 19.9064 76.1934 19.802 76.654 19.6724V21.3067C76.2961 21.4615 75.4281 21.6163 74.7159 21.6163C71.7823 21.6163 71.017 19.802 71.017 16.7171V10.2376H68.4412V8.55291H71.017V4.51044H71.0134Z" fill="url(#paint3_linear_43_1733)"/>
<path d="M80.81 16.3067C81.1926 18.5097 82.6453 19.9892 85.1467 19.9892C87.6481 19.9892 89.2283 18.4593 89.2283 16.5155C89.2283 14.5716 87.9776 13.6141 86.1175 13.0669L83.8995 12.419C81.2706 11.6415 79.4105 10.2412 79.4105 7.62418C79.4105 4.72282 81.8091 2.80417 84.9447 2.80417C88.0803 2.80417 90.2274 4.928 90.4542 7.72857H88.5905C88.3602 5.83513 87.0351 4.48883 84.9164 4.48883C82.7976 4.48883 81.3698 5.65514 81.3698 7.57379C81.3698 9.49243 82.6949 10.1404 84.5833 10.6839L86.7021 11.3319C89.4834 12.1346 91.1911 13.5853 91.1911 16.3859C91.1911 19.496 88.6153 21.6739 85.1183 21.6739C81.6214 21.6739 79.3255 19.496 78.8684 16.3067H80.8065H80.81Z" fill="url(#paint4_linear_43_1733)"/>
<path d="M95.5029 15.7595C95.8076 18.4017 97.5437 20.0612 100.173 20.0612C102.135 20.0612 103.641 19.1037 104.382 17.8834H106.27C105.328 19.982 103.028 21.6163 100.197 21.6163C96.0662 21.6163 93.54 18.6105 93.54 14.928C93.54 11.2455 96.2434 8.23975 100.098 8.23975C103.953 8.23975 106.554 11.1411 106.554 14.7984V15.7559H95.5064L95.5029 15.7595ZM95.4745 14.2045H104.683C104.477 11.6631 102.819 9.74443 100.116 9.74443C97.6145 9.74443 95.7261 11.5083 95.4745 14.2045Z" fill="url(#paint5_linear_43_1733)"/>
<path d="M111.727 21.3067H109.735V8.55292H111.649V11.0403C112.311 9.22607 114.122 8.23975 116.343 8.23975C119.404 8.23975 121.342 10.6768 121.342 13.9957V21.3067H119.351V14.3845C119.351 11.8719 118.281 10.0576 115.73 10.0576C113.385 10.0576 111.727 11.9223 111.727 14.3341V21.3067Z" fill="url(#paint6_linear_43_1733)"/>
<path d="M126.086 17.6782C126.366 19.2081 127.49 20.1152 129.201 20.1152C130.912 20.1152 132.056 19.2333 132.056 17.8618C132.056 16.7459 131.369 16.1519 130.143 15.7883L128.102 15.1908C126.267 14.6724 124.889 13.7401 124.889 11.7423C124.889 9.64364 126.65 8.24335 129.048 8.24335C131.447 8.24335 132.953 9.71923 133.233 11.8215H131.497C131.369 10.7343 130.604 9.74803 129.048 9.74803C127.645 9.74803 126.728 10.5004 126.728 11.6919C126.728 12.8834 127.415 13.2217 128.641 13.5853L130.912 14.2585C132.825 14.8272 133.895 15.9179 133.895 17.7322C133.895 20.1152 131.649 21.6199 129.176 21.6199C126.703 21.6199 124.687 20.3492 124.329 17.6782H126.09H126.086Z" fill="url(#paint7_linear_43_1733)"/>
<path d="M138.002 15.7595C138.307 18.4017 140.043 20.0612 142.672 20.0612C144.635 20.0612 146.14 19.1037 146.881 17.8834H148.769C147.823 19.982 145.527 21.6163 142.696 21.6163C138.562 21.6163 136.039 18.6105 136.039 14.928C136.039 11.2455 138.742 8.23975 142.597 8.23975C146.452 8.23975 149.053 11.1411 149.053 14.7984V15.7559H138.005L138.002 15.7595ZM137.977 14.2045H147.186C146.98 11.6631 145.322 9.74443 142.619 9.74443C140.117 9.74443 138.229 11.5083 137.974 14.2045H137.977Z" fill="url(#paint8_linear_43_1733)"/>
<path d="M160.22 3.16415H158.537L151.037 21.3067H153.155L154.711 17.3938L155.398 15.6588L155.99 14.1541C155.99 14.1541 156 14.1289 156.004 14.1181L159.377 5.55076L163.356 15.6588L164.043 17.3938L165.599 21.3067H167.717L160.217 3.16415H160.22Z" fill="url(#paint9_linear_43_1733)"/>
<path d="M170.959 3.16415H173V21.3067H170.959V3.16415Z" fill="url(#paint10_linear_43_1733)"/>
<path fill-rule="evenodd" clip-rule="evenodd" d="M12.4538 0.075594C12.4538 6.85385 17.8605 12.347 24.5321 12.347H24.6065V12.8042H24.5321C17.8853 12.8042 12.4928 18.2577 12.4538 25H12.0039V24.874C11.8976 18.2145 6.57236 12.8474 0 12.8042V12.347H0.124007C6.70345 12.239 12.0039 6.78546 12.0039 0.075594V0H12.4538V0.075594Z" fill="#404999"/>
<mask id="mask0_43_1733" style="mask-type:luminance" maskUnits="userSpaceOnUse" x="0" y="0" width="25" height="25">
<path d="M12.4538 0.075594C12.4538 6.85385 17.8605 12.347 24.5321 12.347H24.6065V12.8042H24.5321C17.8853 12.8042 12.4928 18.2577 12.4538 25H12.0039V24.874C11.8976 18.2145 6.57236 12.8474 0 12.8042V12.347H0.124007C6.70345 12.239 12.0039 6.78546 12.0039 0.075594V0H12.4538V0.075594Z" fill="white"/>
</mask>
<g mask="url(#mask0_43_1733)">
<path d="M24.7587 -0.151184H-0.148926V25.1548H24.7587V-0.151184Z" fill="#404999"/>
</g>
</g>
<defs>
<linearGradient id="paint0_linear_43_1733" x1="28.2063" y1="12.2354" x2="173" y2="12.2354" gradientUnits="userSpaceOnUse">
<stop stop-color="#404999"/>
<stop offset="0.1" stop-color="#524998"/>
<stop offset="0.39" stop-color="#814996"/>
<stop offset="0.65" stop-color="#A44995"/>
<stop offset="0.86" stop-color="#B94995"/>
<stop offset="1" stop-color="#C14A95"/>
</linearGradient>
<linearGradient id="paint1_linear_43_1733" x1="28.2064" y1="12.2354" x2="173" y2="12.2354" gradientUnits="userSpaceOnUse">
<stop stop-color="#404999"/>
<stop offset="0.1" stop-color="#524998"/>
<stop offset="0.39" stop-color="#814996"/>
<stop offset="0.65" stop-color="#A44995"/>
<stop offset="0.86" stop-color="#B94995"/>
<stop offset="1" stop-color="#C14A95"/>
</linearGradient>
<linearGradient id="paint2_linear_43_1733" x1="28.2062" y1="12.2354" x2="173" y2="12.2354" gradientUnits="userSpaceOnUse">
<stop stop-color="#404999"/>
<stop offset="0.1" stop-color="#524998"/>
<stop offset="0.39" stop-color="#814996"/>
<stop offset="0.65" stop-color="#A44995"/>
<stop offset="0.86" stop-color="#B94995"/>
<stop offset="1" stop-color="#C14A95"/>
</linearGradient>
<linearGradient id="paint3_linear_43_1733" x1="28.2063" y1="12.2354" x2="173" y2="12.2354" gradientUnits="userSpaceOnUse">
<stop stop-color="#404999"/>
<stop offset="0.1" stop-color="#524998"/>
<stop offset="0.39" stop-color="#814996"/>
<stop offset="0.65" stop-color="#A44995"/>
<stop offset="0.86" stop-color="#B94995"/>
<stop offset="1" stop-color="#C14A95"/>
</linearGradient>
<linearGradient id="paint4_linear_43_1733" x1="28.2064" y1="12.2354" x2="173" y2="12.2354" gradientUnits="userSpaceOnUse">
<stop stop-color="#404999"/>
<stop offset="0.1" stop-color="#524998"/>
<stop offset="0.39" stop-color="#814996"/>
<stop offset="0.65" stop-color="#A44995"/>
<stop offset="0.86" stop-color="#B94995"/>
<stop offset="1" stop-color="#C14A95"/>
</linearGradient>
<linearGradient id="paint5_linear_43_1733" x1="28.2063" y1="12.2354" x2="173" y2="12.2354" gradientUnits="userSpaceOnUse">
<stop stop-color="#404999"/>
<stop offset="0.1" stop-color="#524998"/>
<stop offset="0.39" stop-color="#814996"/>
<stop offset="0.65" stop-color="#A44995"/>
<stop offset="0.86" stop-color="#B94995"/>
<stop offset="1" stop-color="#C14A95"/>
</linearGradient>
<linearGradient id="paint6_linear_43_1733" x1="28.2062" y1="12.2354" x2="173" y2="12.2354" gradientUnits="userSpaceOnUse">
<stop stop-color="#404999"/>
<stop offset="0.1" stop-color="#524998"/>
<stop offset="0.39" stop-color="#814996"/>
<stop offset="0.65" stop-color="#A44995"/>
<stop offset="0.86" stop-color="#B94995"/>
<stop offset="1" stop-color="#C14A95"/>
</linearGradient>
<linearGradient id="paint7_linear_43_1733" x1="28.2062" y1="12.2354" x2="173" y2="12.2354" gradientUnits="userSpaceOnUse">
<stop stop-color="#404999"/>
<stop offset="0.1" stop-color="#524998"/>
<stop offset="0.39" stop-color="#814996"/>
<stop offset="0.65" stop-color="#A44995"/>
<stop offset="0.86" stop-color="#B94995"/>
<stop offset="1" stop-color="#C14A95"/>
</linearGradient>
<linearGradient id="paint8_linear_43_1733" x1="28.2063" y1="12.2354" x2="173" y2="12.2354" gradientUnits="userSpaceOnUse">
<stop stop-color="#404999"/>
<stop offset="0.1" stop-color="#524998"/>
<stop offset="0.39" stop-color="#814996"/>
<stop offset="0.65" stop-color="#A44995"/>
<stop offset="0.86" stop-color="#B94995"/>
<stop offset="1" stop-color="#C14A95"/>
</linearGradient>
<linearGradient id="paint9_linear_43_1733" x1="28.2062" y1="12.2354" x2="173" y2="12.2354" gradientUnits="userSpaceOnUse">
<stop stop-color="#404999"/>
<stop offset="0.1" stop-color="#524998"/>
<stop offset="0.39" stop-color="#814996"/>
<stop offset="0.65" stop-color="#A44995"/>
<stop offset="0.86" stop-color="#B94995"/>
<stop offset="1" stop-color="#C14A95"/>
</linearGradient>
<linearGradient id="paint10_linear_43_1733" x1="28.206" y1="12.2354" x2="173" y2="12.2354" gradientUnits="userSpaceOnUse">
<stop stop-color="#404999"/>
<stop offset="0.1" stop-color="#524998"/>
<stop offset="0.39" stop-color="#814996"/>
<stop offset="0.65" stop-color="#A44995"/>
<stop offset="0.86" stop-color="#B94995"/>
<stop offset="1" stop-color="#C14A95"/>
</linearGradient>
<clipPath id="clip0_43_1733">
<rect width="173" height="25" fill="white"/>
</clipPath>
</defs>
</svg>

