<svg width="22" height="18" viewBox="0 0 22 18" fill="none" xmlns="http://www.w3.org/2000/svg">
<path d="M18.6827 6.47469C17.3568 7.62866 15.2715 7.43202 14.1848 6.05058C13.0981 4.66915 13.3981 2.59611 14.8319 1.57943C16.1726 0.519295 20.4287 1.1429 20.4287 1.1429C20.4287 1.1429 20.039 5.41456 18.6827 6.47469Z" stroke-linecap="round" stroke-linejoin="round"/>
<path d="M4.67212 9.11478C5.83317 10.1254 7.6595 9.9532 8.61117 8.74337C9.5621 7.5345 9.28585 5.7079 8.0445 4.82762C6.87031 3.89921 3.14294 4.44534 3.14294 4.44534C3.14294 4.44534 3.48427 8.18636 4.67212 9.11478Z" stroke-linecap="round" stroke-linejoin="round"/>
<path d="M0.785767 16.8572C0.785767 16.8572 3.92862 13.7144 11.0001 13.7144C18.0715 13.7144 21.2143 16.8572 21.2143 16.8572" stroke-linecap="round" stroke-linejoin="round"/>
<path d="M14.3296 6.22815L14.1205 6.4234C12.5491 7.99483 11.1509 11.6147 11 13.7143C11 11.2268 10.5202 10.1228 8.76883 8.71702L8.69202 8.644" stroke-linecap="round" stroke-linejoin="round"/>
</svg>
