<svg width="18" height="22" viewBox="0 0 18 22" fill="none" xmlns="http://www.w3.org/2000/svg">
<path d="M1.80293 17.6882C2.01014 17.0667 2.59185 16.6475 3.24709 16.6475H14.7532C15.4083 16.6475 15.99 17.0667 16.1973 17.6882L17.3726 21.2142H0.627625L1.80293 17.6882Z" stroke-linecap="round" stroke-linejoin="round"/>
<path d="M3.61247 16.6475C3.86208 15.344 5.66469 13.8464 6.94046 12.848C9.99678 10.4562 9.71359 8.41073 9.21438 7.85608L6.15984 9.60151C5.4339 10.0163 4.52376 9.91872 3.90231 9.35939C3.21734 8.74288 3.06137 7.72922 3.52934 6.9353L5.831 3.0306L4.94355 1.03385C6.40413 0.516171 10.4459 0.789911 12.0432 2.03233C14.04 3.58536 16.5914 5.94272 14.4837 16.6475" stroke-linecap="round" stroke-linejoin="round"/>
<path d="M10.215 6.24084C10.0381 7.00756 9.60638 7.53911 9.22272 7.85827" stroke-linecap="round" stroke-linejoin="round"/>
</svg>
