<svg width="20" height="22" viewBox="0 0 20 22" fill="none" xmlns="http://www.w3.org/2000/svg">
<path d="M9.99805 1C7.14805 1 5.30105 3.02 3.11605 3.755C2.22805 4.055 1.78305 4.204 1.60405 4.415C1.42405 4.625 1.37105 4.934 1.26605 5.55C0.139048 12.146 2.60205 18.244 8.47505 20.618C9.10605 20.873 9.42205 21 10.001 21C10.58 21 10.897 20.873 11.528 20.618C17.401 18.244 19.861 12.146 18.734 5.55C18.628 4.934 18.576 4.626 18.396 4.415C18.216 4.204 17.772 4.055 16.884 3.755C14.698 3.02 12.848 1 9.99805 1Z" stroke="#595959" stroke-width="1.5" stroke-linecap="round" stroke-linejoin="round"/>
<path d="M9.833 11.167C10.888 12.222 12.278 13.294 12.278 13.294L14.183 11.389C14.183 11.389 13.111 9.999 12.056 8.944C11.001 7.889 9.611 6.817 9.611 6.817L7.706 8.722C7.706 8.722 8.778 10.112 9.833 11.167ZM9.833 11.167L6.5 14.5M14.5 11.071L11.96 13.611M9.93 6.5L7.39 9.04" stroke="#595959" stroke-width="1.5" stroke-linecap="round" stroke-linejoin="round"/>
</svg>
