<svg width="24" height="24" viewBox="0 0 24 24" fill="none" xmlns="http://www.w3.org/2000/svg">
<path d="M4.80469 9.25439L1.80469 12.2544L4.80469 15.2544" stroke="#595959" stroke-width="2" stroke-linecap="round" stroke-linejoin="round"/>
<path d="M8.80469 5.25439L11.8047 2.25439L14.8047 5.25439" stroke="#595959" stroke-width="2" stroke-linecap="round" stroke-linejoin="round"/>
<path d="M14.8047 19.2544L11.8047 22.2544L8.80469 19.2544" stroke="#595959" stroke-width="2" stroke-linecap="round" stroke-linejoin="round"/>
<path d="M18.8047 9.25439L21.8047 12.2544L18.8047 15.2544" stroke="#595959" stroke-width="2" stroke-linecap="round" stroke-linejoin="round"/>
<path d="M1.80469 12.2544H21.8047" stroke="#595959" stroke-width="2" stroke-linecap="round" stroke-linejoin="round"/>
<path d="M11.8047 2.25439V22.2544" stroke="#595959" stroke-width="2" stroke-linecap="round" stroke-linejoin="round"/>
<path d="M4.80469 9.25439L1.80469 12.2544L4.80469 15.2544" stroke="#595959" stroke-width="2" stroke-linecap="round" stroke-linejoin="round"/>
<path d="M8.80469 5.25439L11.8047 2.25439L14.8047 5.25439" stroke="#595959" stroke-width="2" stroke-linecap="round" stroke-linejoin="round"/>
<path d="M14.8047 19.2544L11.8047 22.2544L8.80469 19.2544" stroke="#595959" stroke-width="2" stroke-linecap="round" stroke-linejoin="round"/>
<path d="M18.8047 9.25439L21.8047 12.2544L18.8047 15.2544" stroke="#595959" stroke-width="2" stroke-linecap="round" stroke-linejoin="round"/>
<path d="M1.80469 12.2544H21.8047" stroke="#595959" stroke-width="2" stroke-linecap="round" stroke-linejoin="round"/>
<path d="M11.8047 2.25439V22.2544" stroke="#595959" stroke-width="2" stroke-linecap="round" stroke-linejoin="round"/>
</svg>
