<svg width="20" height="21" viewBox="0 0 20 21" fill="none" xmlns="http://www.w3.org/2000/svg">
    <path
        d="M4.75 10.5C4.55109 10.5 4.36032 10.579 4.21967 10.7197C4.07902 10.8603 4 11.0511 4 11.25V15C4 15.1989 4.07902 15.3897 4.21967 15.5303C4.36032 15.671 4.55109 15.75 4.75 15.75C4.94891 15.75 5.13968 15.671 5.28033 15.5303C5.42098 15.3897 5.5 15.1989 5.5 15V14.25H5.875C6.37228 14.25 6.84919 14.0525 7.20083 13.7008C7.55246 13.3492 7.75 12.8723 7.75 12.375C7.75 11.8777 7.55246 11.4008 7.20083 11.0492C6.84919 10.6975 6.37228 10.5 5.875 10.5H4.75ZM5.875 12.75H5.5V12H5.875C5.97446 12 6.06984 12.0395 6.14017 12.1098C6.21049 12.1802 6.25 12.2755 6.25 12.375C6.25 12.4745 6.21049 12.5698 6.14017 12.6402C6.06984 12.7105 5.97446 12.75 5.875 12.75ZM8.5 11.25C8.5 11.0511 8.57902 10.8603 8.71967 10.7197C8.86032 10.579 9.05109 10.5 9.25 10.5H9.625C10.3212 10.5 10.9889 10.7766 11.4812 11.2688C11.9734 11.7611 12.25 12.4288 12.25 13.125C12.25 13.8212 11.9734 14.4889 11.4812 14.9812C10.9889 15.4734 10.3212 15.75 9.625 15.75H9.25C9.05109 15.75 8.86032 15.671 8.71967 15.5303C8.57902 15.3897 8.5 15.1989 8.5 15V11.25ZM10 14.1863C10.2197 14.1089 10.4101 13.9653 10.5447 13.7752C10.6794 13.5851 10.7517 13.3579 10.7517 13.125C10.7517 12.8921 10.6794 12.6649 10.5447 12.4748C10.4101 12.2847 10.2197 12.1411 10 12.0637V14.1863ZM13 15V11.25C13 11.0511 13.079 10.8603 13.2197 10.7197C13.3603 10.579 13.5511 10.5 13.75 10.5H16C16.1989 10.5 16.3897 10.579 16.5303 10.7197C16.671 10.8603 16.75 11.0511 16.75 11.25C16.75 11.4489 16.671 11.6397 16.5303 11.7803C16.3897 11.921 16.1989 12 16 12H14.5V12.75H16C16.1989 12.75 16.3897 12.829 16.5303 12.9697C16.671 13.1103 16.75 13.3011 16.75 13.5C16.75 13.6989 16.671 13.8897 16.5303 14.0303C16.3897 14.171 16.1989 14.25 16 14.25H14.5V15C14.5 15.1989 14.421 15.3897 14.2803 15.5303C14.1397 15.671 13.9489 15.75 13.75 15.75C13.5511 15.75 13.3603 15.671 13.2197 15.5303C13.079 15.3897 13 15.1989 13 15ZM10.75 5.25V0H4C3.40326 0 2.83097 0.237053 2.40901 0.65901C1.98705 1.08097 1.75 1.65326 1.75 2.25V8.25C1.35218 8.25 0.970644 8.40804 0.68934 8.68934C0.408035 8.97064 0.25 9.35218 0.25 9.75V16.5C0.25 16.8978 0.408035 17.2794 0.68934 17.5607C0.970644 17.842 1.35218 18 1.75 18V18.75C1.75 19.3467 1.98705 19.919 2.40901 20.341C2.83097 20.7629 3.40326 21 4 21H16C16.5967 21 17.169 20.7629 17.591 20.341C18.0129 19.919 18.25 19.3467 18.25 18.75V18C18.6478 18 19.0294 17.842 19.3107 17.5607C19.592 17.2794 19.75 16.8978 19.75 16.5V9.75C19.75 9.35218 19.592 8.97064 19.3107 8.68934C19.0294 8.40804 18.6478 8.25 18.25 8.25V7.5H13C12.4033 7.5 11.831 7.26295 11.409 6.84099C10.9871 6.41903 10.75 5.84674 10.75 5.25ZM18.25 9.75V16.5H1.75V9.75H18.25ZM12.25 5.25V0.0877501C12.6164 0.19301 12.9501 0.389664 13.2197 0.65925L17.5908 5.03025C17.8603 5.29986 18.057 5.63355 18.1622 6H13C12.8011 6 12.6103 5.92098 12.4697 5.78033C12.329 5.63968 12.25 5.44891 12.25 5.25Z"
        fill="#404999" />
</svg>