<svg width="24" height="24" viewBox="0 0 24 24" fill="none" xmlns="http://www.w3.org/2000/svg">
<path fill-rule="evenodd" clip-rule="evenodd" d="M0 11.9999C0 5.37254 5.37254 0 11.9999 0C18.6274 0 23.9998 5.37255 23.9998 11.9999C23.9998 18.6273 18.6273 23.9998 11.9999 23.9998C5.37255 23.9998 0 18.6274 0 11.9999ZM11.9999 2C6.47711 2 2 6.47711 2 11.9999C2 17.5228 6.47711 21.9998 11.9999 21.9998C17.5228 21.9998 21.9998 17.5228 21.9998 11.9999C21.9998 6.47711 17.5228 2 11.9999 2ZM12 5.92311C12.5523 5.92311 13 6.37082 13 6.92311V11H17.0759C17.6282 11 18.0759 11.4477 18.0759 12C18.0759 12.5523 17.6282 13 17.0759 13H13V17.0759C13 17.6282 12.5523 18.0759 12 18.0759C11.4477 18.0759 11 17.6282 11 17.0759V13H6.92311C6.37082 13 5.92311 12.5523 5.92311 12C5.92311 11.4477 6.37082 11 6.92311 11H11V6.92311C11 6.37082 11.4477 5.92311 12 5.92311Z" fill="url(#paint0_linear_4050_5665)"/>
<defs>
<linearGradient id="paint0_linear_4050_5665" x1="-1.63251e-07" y1="0.380754" x2="3.87484" y2="26.5939" gradientUnits="userSpaceOnUse">
<stop stop-color="#4B20F7"/>
<stop offset="1" stop-color="#A900F7"/>
</linearGradient>
</defs>
</svg>
