<svg width="18" height="18" viewBox="0 0 18 18" fill="none" xmlns="http://www.w3.org/2000/svg">
<path d="M6.72437 2.89258L7.27723 1.46544C7.37047 1.2238 7.53451 1.01596 7.74787 0.869136C7.96123 0.72231 8.21395 0.643343 8.47294 0.642578H9.52723C9.78622 0.643343 10.039 0.72231 10.2523 0.869136C10.4657 1.01596 10.6297 1.2238 10.7229 1.46544L11.2758 2.89258L13.1529 3.97258L14.67 3.74115C14.9227 3.70686 15.1798 3.74844 15.4088 3.86062C15.6377 3.9728 15.8281 4.1505 15.9558 4.37115L16.47 5.27115C16.6018 5.49531 16.6626 5.75417 16.6443 6.01355C16.6259 6.27293 16.5293 6.52065 16.3672 6.72401L15.4286 7.91972V10.0797L16.3929 11.2754C16.555 11.4788 16.6516 11.7265 16.67 11.9859C16.6884 12.2453 16.6275 12.5041 16.4958 12.7283L15.9815 13.6283C15.8538 13.8489 15.6634 14.0266 15.4345 14.1388C15.2055 14.251 14.9484 14.2926 14.6958 14.2583L13.1786 14.0269L11.3015 15.1069L10.7487 16.534C10.6554 16.7756 10.4914 16.9835 10.278 17.1303C10.0647 17.2772 9.81194 17.3561 9.55294 17.3569H8.47294C8.21395 17.3561 7.96123 17.2772 7.74787 17.1303C7.53451 16.9835 7.37047 16.7756 7.27723 16.534L6.72437 15.1069L4.84723 14.0269L3.33009 14.2583C3.07747 14.2926 2.82035 14.251 2.59142 14.1388C2.3625 14.0266 2.17208 13.8489 2.04437 13.6283L1.53009 12.7283C1.3983 12.5041 1.33759 12.2453 1.35595 11.9859C1.37431 11.7265 1.47089 11.4788 1.63294 11.2754L2.57152 10.0797V7.91972L1.60723 6.72401C1.44518 6.52065 1.3486 6.27293 1.33024 6.01355C1.31188 5.75417 1.37259 5.49531 1.50437 5.27115L2.01866 4.37115C2.14637 4.1505 2.33678 3.9728 2.5657 3.86062C2.79464 3.74844 3.05176 3.70686 3.30437 3.74115L4.82152 3.97258L6.72437 2.89258ZM6.42866 8.99972C6.42866 9.5083 6.57947 10.0055 6.86202 10.4283C7.14458 10.8512 7.54618 11.1808 8.01604 11.3754C8.48592 11.57 9.00294 11.621 9.50175 11.5217C10.0006 11.4225 10.4587 11.1776 10.8184 10.818C11.178 10.4584 11.4229 10.0002 11.5221 9.50138C11.6213 9.00258 11.5704 8.48555 11.3758 8.01567C11.1812 7.54581 10.8516 7.1442 10.4287 6.86166C10.0058 6.57911 9.50866 6.42829 9.00009 6.42829C8.31811 6.42829 7.66405 6.69921 7.18182 7.18145C6.69958 7.66368 6.42866 8.31774 6.42866 8.99972Z" stroke="white" stroke-linecap="round" stroke-linejoin="round"/>
</svg>
