<svg xmlns="http://www.w3.org/2000/svg" width="18" height="18" viewBox="0 0 18 18" fill="none">
    <g clip-path="url(#clip0_2008_68)">
        <path d="M6.72431 2.89288L7.27717 1.46574C7.37041 1.22411 7.53445 1.01627 7.74781 0.869442C7.96117 0.722616 8.21389 0.643648 8.47288 0.642883H9.52717C9.78616 0.643648 10.0389 0.722616 10.2522 0.869442C10.4656 1.01627 10.6296 1.22411 10.7229 1.46574L11.2757 2.89288L13.1528 3.97288L14.67 3.74145C14.9226 3.70716 15.1798 3.74874 15.4087 3.86092C15.6376 3.9731 15.828 4.1508 15.9557 4.37145L16.47 5.27145C16.6018 5.49562 16.6626 5.75447 16.6442 6.01385C16.6258 6.27323 16.5292 6.52095 16.3671 6.72431L15.4285 7.92003V10.08L16.3928 11.2757C16.555 11.4791 16.6515 11.7268 16.6699 11.9862C16.6883 12.2456 16.6275 12.5044 16.4957 12.7286L15.9814 13.6286C15.8537 13.8492 15.6633 14.0269 15.4345 14.1392C15.2055 14.2513 14.9483 14.2929 14.6957 14.2586L13.1785 14.0272L11.3015 15.1072L10.7486 16.5343C10.6554 16.7759 10.4913 16.9838 10.278 17.1306C10.0646 17.2775 9.81188 17.3564 9.55288 17.3572H8.47288C8.21389 17.3564 7.96117 17.2775 7.74781 17.1306C7.53445 16.9838 7.37041 16.7759 7.27717 16.5343L6.72431 15.1072L4.84717 14.0272L3.33003 14.2586C3.07741 14.2929 2.82029 14.2513 2.59136 14.1392C2.36244 14.0269 2.17202 13.8492 2.04431 13.6286L1.53003 12.7286C1.39824 12.5044 1.33753 12.2456 1.35589 11.9862C1.37425 11.7268 1.47083 11.4791 1.63288 11.2757L2.57146 10.08V7.92003L1.60717 6.72431C1.44512 6.52095 1.34854 6.27323 1.33018 6.01385C1.31182 5.75447 1.37253 5.49562 1.50431 5.27145L2.0186 4.37145C2.14631 4.1508 2.33672 3.9731 2.56564 3.86092C2.79458 3.74874 3.0517 3.70716 3.30431 3.74145L4.82146 3.97288L6.72431 2.89288ZM6.4286 9.00003C6.4286 9.5086 6.57941 10.0058 6.86196 10.4286C7.14452 10.8515 7.54612 11.1811 8.01598 11.3757C8.48586 11.5703 9.00288 11.6213 9.50169 11.522C10.0005 11.4228 10.4587 11.1779 10.8183 10.8183C11.1779 10.4587 11.4228 10.0005 11.522 9.50169C11.6213 9.00288 11.5703 8.48586 11.3757 8.01598C11.1811 7.54612 10.8515 7.14451 10.4286 6.86196C10.0058 6.57941 9.5086 6.4286 9.00003 6.4286C8.31805 6.4286 7.66399 6.69951 7.18176 7.18176C6.69952 7.66399 6.4286 8.31804 6.4286 9.00003Z" stroke="black" stroke-linecap="round" stroke-linejoin="round"/>
    </g>
    <defs>
        <clipPath id="clip0_2008_68">
            <rect width="18" height="18" fill="white"/>
        </clipPath>
    </defs>
</svg>